<?xml version="1.0" ?><svg style="enable-background:new 0 0 512 512;" version="1.1" viewBox="0 0 512 512" xml:space="preserve" xmlns="http://www.w3.org/2000/svg" xmlns:xlink="http://www.w3.org/1999/xlink"><g id="_x31_2_x2C__Compas_x2C__navigate_x2C__regular._travel_x2C__gps"><g><circle cx="256" cy="256" r="220.08" style="fill:#E74C3C;"/><polygon points="213.43,213.43 129.68,382.32 286.49,286.49 382.32,129.68   " style="fill:#F1C40F;"/><path d="M249.67,232.64c10.37,0,18.78,8.44,18.78,18.78c0,10.33-8.41,18.77-18.78,18.77    c-10.34,0-18.75-8.44-18.75-18.77C230.92,241.08,239.33,232.64,249.67,232.64z" style="fill:#F39C12;"/><path d="M256,486.08C129.133,486.08,25.92,382.866,25.92,256C25.92,129.133,129.133,25.92,256,25.92S486.08,129.133,486.08,256    C486.08,382.866,382.867,486.08,256,486.08z M256,45.92C140.162,45.92,45.92,140.162,45.92,256    c0,115.839,94.242,210.08,210.08,210.08S466.08,371.839,466.08,256C466.08,140.162,371.838,45.92,256,45.92z"/><path d="M129.683,392.32c-2.44,0-4.862-0.891-6.755-2.624c-3.286-3.008-4.186-7.827-2.207-11.818l83.75-168.89    c0.971-1.959,2.558-3.545,4.517-4.517l168.89-83.75c3.99-1.98,8.81-1.079,11.818,2.207c3.008,3.286,3.48,8.166,1.157,11.967    l-95.83,156.811c-0.827,1.354-1.964,2.49-3.318,3.318l-156.81,95.83C133.283,391.838,131.478,392.32,129.683,392.32z     M220.892,220.892l-66.858,134.826l125.182-76.502l76.501-125.182L220.892,220.892z"/><path d="M249.67,280.19c-15.853,0-28.75-12.906-28.75-28.771c0-15.869,12.897-28.78,28.75-28.78c15.87,0,28.78,12.911,28.78,28.78    C278.45,267.284,265.54,280.19,249.67,280.19z M249.67,242.64c-4.825,0-8.75,3.938-8.75,8.78c0,4.836,3.925,8.771,8.75,8.771    c4.841,0,8.78-3.935,8.78-8.771C258.45,246.579,254.511,242.64,249.67,242.64z"/></g></g><g id="Layer_1"/></svg>