<?xml version="1.0" ?><svg style="enable-background:new 0 0 512 512;" version="1.1" viewBox="0 0 512 512" xml:space="preserve" xmlns="http://www.w3.org/2000/svg" xmlns:xlink="http://www.w3.org/1999/xlink"><g id="_x31_7_x2C__Home_x2C__house_x2C__location_x2C__pin_x2C__building"><g><rect height="50.71" style="fill:#F39C12;" width="57.43" x="103.04" y="185.69"/><path d="M386.02,206.62c47.87,0.37,86.58,39.28,86.58,87.27c0,36.11-64.86,124.49-87.28,164.91    c-21.52-38.77-87.25-130.93-87.25-164.91c0-48.22,39.06-87.28,87.25-87.28C385.55,206.61,385.79,206.61,386.02,206.62z     M424.32,290.57c0-21.46-17.52-38.98-39-38.98c-21.46,0-38.98,17.52-38.98,38.98c0,21.49,17.52,39,38.98,39    C406.8,329.57,424.32,312.06,424.32,290.57z" style="fill:#E74C3C;"/><rect height="79.48" style="fill:#F1C40F;" width="47.82" x="249.37" y="379.32"/><rect height="48.01" style="fill:#16A085;" width="132.18" x="207.19" y="53.2"/><polygon points="160.47,236.4 160.47,458.8 74.24,458.8 74.24,236.4 103.04,236.4   " style="fill:#F1C40F;"/><path d="M386.05,101.21v102.96l-0.03,2.45c-0.23-0.01-0.47-0.01-0.7-0.01c-48.19,0-87.25,39.06-87.25,87.28    c0,33.98,65.73,126.14,87.25,164.91h-88.13v-79.48h-47.82v79.48h-88.9V236.4v-50.71v-84.48h46.72h132.18H386.05z" style="fill:#1ABC9C;"/><path d="M481.27,468.8h-95.22c-5.523,0-10-4.478-10-10s4.477-10,10-10h95.22c5.523,0,10,4.478,10,10S486.793,468.8,481.27,468.8z"/><path d="M74.24,468.8H30.73c-5.523,0-10-4.478-10-10s4.477-10,10-10h43.51c5.523,0,10,4.478,10,10S79.763,468.8,74.24,468.8z"/><path d="M339.37,111.21c-5.523,0-10-4.477-10-10V63.2H217.19v38.01c0,5.523-4.477,10-10,10s-10-4.477-10-10V53.2    c0-5.523,4.477-10,10-10h132.18c5.523,0,10,4.477,10,10v48.01C349.37,106.733,344.893,111.21,339.37,111.21z"/><path d="M386.05,214.17c-5.523,0-10-4.477-10-10v-92.96H170.47v74.48c0,5.523-4.477,10-10,10s-10-4.477-10-10v-84.48    c0-5.523,4.477-10,10-10h225.58c5.523,0,10,4.477,10,10v102.96C396.05,209.693,391.573,214.17,386.05,214.17z"/><path d="M249.37,468.8h-88.9c-5.523,0-10-4.478-10-10s4.477-10,10-10h88.9c5.523,0,10,4.478,10,10S254.893,468.8,249.37,468.8z"/><path d="M386.05,468.8h-88.86c-5.523,0-10-4.478-10-10s4.477-10,10-10h88.86c5.523,0,10,4.478,10,10S391.573,468.8,386.05,468.8z"/><path d="M160.47,468.8H74.24c-5.523,0-10-4.478-10-10V236.4c0-5.523,4.477-10,10-10h28.8c5.523,0,10,4.477,10,10s-4.477,10-10,10    h-18.8v202.4h66.23V236.4c0-5.523,4.477-10,10-10s10,4.477,10,10v222.4C170.47,464.322,165.993,468.8,160.47,468.8z"/><path d="M160.47,246.4h-57.43c-5.523,0-10-4.477-10-10v-50.71c0-5.523,4.477-10,10-10h57.43c5.523,0,10,4.477,10,10v50.71    C170.47,241.923,165.993,246.4,160.47,246.4z M113.04,226.4h37.43v-30.71h-37.43V226.4z"/><path d="M297.19,468.8h-47.82c-5.523,0-10-4.478-10-10V379.32c0-5.522,4.477-10,10-10h47.82c5.523,0,10,4.478,10,10V458.8    C307.19,464.322,302.713,468.8,297.19,468.8z M259.37,448.8h27.82V389.32h-27.82V448.8z"/><path d="M385.321,468.8c-3.633,0.001-6.981-1.97-8.745-5.146c-5.625-10.134-14.317-23.963-24.382-39.975    c-36.333-57.803-64.125-104.063-64.125-129.789c0-53.64,43.626-97.28,97.25-97.28c0.303,0,0.616,0.002,0.923,0.012    c25.765,0.237,49.95,10.437,68.114,28.73c18.212,18.342,28.243,42.683,28.243,68.538c0,29.119-33.49,81.798-63.039,128.275    c-10.025,15.77-19.495,30.664-25.497,41.485C392.302,466.828,388.955,468.799,385.321,468.8z M385.32,216.61    c-42.596,0-77.25,34.667-77.25,77.28c0,22.008,36.744,80.464,61.058,119.146c5.98,9.514,11.482,18.268,16.199,26.021    c5.045-8.255,10.938-17.522,17.357-27.621C427.97,371.661,462.6,317.189,462.6,293.89c0-42.28-34.388-76.943-76.657-77.27    c-0.123-0.001-0.246-0.004-0.368-0.009L385.32,216.61z"/><path d="M385.32,339.57c-27.008,0-48.98-21.981-48.98-49c0-27.008,21.972-48.98,48.98-48.98c27.019,0,49,21.973,49,48.98    C434.32,317.589,412.338,339.57,385.32,339.57z M385.32,261.59c-15.979,0-28.98,13.001-28.98,28.98c0,15.99,13,29,28.98,29    c15.991,0,29-13.01,29-29C414.32,274.591,401.311,261.59,385.32,261.59z"/><path d="M261.7,221.54c-5.523,0-10-4.477-10-10v-31.98h-30.03v31.98c0,5.523-4.477,10-10,10s-10-4.477-10-10v-41.98    c0-5.523,4.477-10,10-10h50.03c5.523,0,10,4.477,10,10v41.98C271.7,217.063,267.223,221.54,261.7,221.54z"/><path d="M261.7,304.96c-5.523,0-10-4.478-10-10v-32.01h-30.03v32.01c0,5.522-4.477,10-10,10s-10-4.478-10-10v-42.01    c0-5.523,4.477-10,10-10h50.03c5.523,0,10,4.477,10,10v42.01C271.7,300.482,267.223,304.96,261.7,304.96z"/></g></g><g id="Layer_1"/></svg>